<svg xmlns="http://www.w3.org/2000/svg" xmlns:xlink="http://www.w3.org/1999/xlink" width="2000" zoomAndPan="magnify" viewBox="0 0 1500 1499.999933" height="2000" preserveAspectRatio="xMidYMid meet" version="1.0"><defs><g/><clipPath id="8667b407df"><rect x="0" width="463" y="0" height="135"/></clipPath></defs><rect x="-150" width="1800" fill="#ffffff" y="-149.999993" height="1799.99992" fill-opacity="1"/><rect x="-150" width="1800" fill="#ffffff" y="-149.999993" height="1799.99992" fill-opacity="1"/><g fill="#1f4e79" fill-opacity="1"><g transform="translate(306.512175, 901.514874)"><g><path d="M 115.453125 -198.015625 C 136.972656 -219.117188 151.5625 -237.738281 159.21875 -253.875 C 166.875 -270.019531 169.457031 -282.539062 166.96875 -291.4375 C 164.488281 -300.332031 158.285156 -304.78125 148.359375 -304.78125 C 136.773438 -304.78125 121.253906 -297.640625 101.796875 -283.359375 C 82.347656 -269.085938 62.28125 -245.609375 41.59375 -212.921875 C 39.9375 -233.609375 36.003906 -255.332031 29.796875 -278.09375 C 23.585938 -300.851562 15.722656 -322.992188 6.203125 -344.515625 L 206.09375 -344.515625 C 208.570312 -323.828125 207.640625 -305.722656 203.296875 -290.203125 C 198.953125 -274.679688 192.535156 -261.023438 184.046875 -249.234375 C 175.566406 -237.441406 166.253906 -226.785156 156.109375 -217.265625 C 145.972656 -207.742188 136.148438 -198.222656 126.640625 -188.703125 C 103.460938 -165.941406 87.007812 -145.039062 77.28125 -126 C 67.5625 -106.96875 63.320312 -91.757812 64.5625 -80.375 C 65.800781 -69 71.179688 -63.3125 80.703125 -63.3125 C 89.804688 -63.3125 101.910156 -69.625 117.015625 -82.25 C 132.117188 -94.875 148.984375 -115.671875 167.609375 -144.640625 C 170.085938 -122.703125 174.117188 -103.25 179.703125 -86.28125 C 185.296875 -69.3125 191.609375 -54 198.640625 -40.34375 C 205.671875 -26.6875 212.289062 -13.238281 218.5 0 L 13.65625 0 C 11.175781 -22.757812 13.242188 -44.070312 19.859375 -63.9375 C 26.484375 -83.800781 35.484375 -102.113281 46.859375 -118.875 C 58.242188 -135.632812 70.144531 -150.738281 82.5625 -164.1875 C 94.976562 -177.632812 105.941406 -188.910156 115.453125 -198.015625 Z M 115.453125 -198.015625 "/></g></g></g><g fill="#1f4e79" fill-opacity="1"><g transform="translate(508.253802, 901.514874)"><g><path d="M 107.390625 6.203125 C 88.347656 6.203125 71.273438 -1.453125 56.171875 -16.765625 C 41.066406 -32.078125 29.066406 -53.390625 20.171875 -80.703125 C 11.273438 -108.015625 6.828125 -139.460938 6.828125 -175.046875 C 6.828125 -210.640625 11.273438 -241.570312 20.171875 -267.84375 C 29.066406 -294.125 41.171875 -314.503906 56.484375 -328.984375 C 71.796875 -343.472656 88.972656 -350.71875 108.015625 -350.71875 C 127.460938 -350.71875 144.738281 -343.472656 159.84375 -328.984375 C 174.945312 -314.503906 186.945312 -294.125 195.84375 -267.84375 C 204.738281 -241.570312 209.1875 -210.640625 209.1875 -175.046875 C 209.1875 -139.460938 204.738281 -108.015625 195.84375 -80.703125 C 186.945312 -53.390625 174.84375 -32.078125 159.53125 -16.765625 C 144.21875 -1.453125 126.835938 6.203125 107.390625 6.203125 Z M 60.21875 -310.375 C 53.175781 -310.375 48.101562 -305.40625 45 -295.46875 C 41.894531 -285.539062 40.753906 -272.300781 41.578125 -255.75 C 42.410156 -239.195312 44.894531 -221.191406 49.03125 -201.734375 C 53.175781 -182.285156 58.554688 -162.734375 65.171875 -143.078125 C 71.796875 -123.421875 79.660156 -105.316406 88.765625 -88.765625 C 97.867188 -72.210938 107.90625 -58.96875 118.875 -49.03125 C 129.84375 -39.101562 141.328125 -34.140625 153.328125 -34.140625 C 160.359375 -34.140625 165.425781 -39.101562 168.53125 -49.03125 C 171.632812 -58.96875 172.769531 -72.210938 171.9375 -88.765625 C 171.113281 -105.316406 168.734375 -123.421875 164.796875 -143.078125 C 160.867188 -162.734375 155.488281 -182.285156 148.65625 -201.734375 C 141.832031 -221.191406 133.867188 -239.195312 124.765625 -255.75 C 115.660156 -272.300781 105.726562 -285.539062 94.96875 -295.46875 C 84.207031 -305.40625 72.625 -310.375 60.21875 -310.375 Z M 60.21875 -310.375 "/></g></g></g><g fill="#1f4e79" fill-opacity="1"><g transform="translate(700.684196, 901.514874)"><g><path d="M 43.453125 -465.5625 C 54.628906 -466.800781 65.285156 -466.695312 75.421875 -465.25 C 85.554688 -463.800781 96.003906 -461.421875 106.765625 -458.109375 C 98.078125 -441.140625 89.800781 -422.617188 81.9375 -402.546875 C 74.070312 -382.484375 67.242188 -362.101562 61.453125 -341.40625 C 58.972656 -331.476562 58.867188 -326.304688 61.140625 -325.890625 C 63.421875 -325.472656 67.144531 -327.332031 72.3125 -331.46875 C 77.488281 -335.613281 83.078125 -339.859375 89.078125 -344.203125 C 95.078125 -348.546875 100.351562 -350.71875 104.90625 -350.71875 C 124.351562 -350.71875 141.835938 -343.472656 157.359375 -328.984375 C 172.878906 -314.503906 185.191406 -294.125 194.296875 -267.84375 C 203.398438 -241.570312 207.953125 -210.640625 207.953125 -175.046875 C 207.953125 -148.972656 205.257812 -123.109375 199.875 -97.453125 C 194.5 -71.796875 188.296875 -47.796875 181.265625 -25.453125 C 180.015625 -21.722656 179.90625 -18.925781 180.9375 -17.0625 C 181.976562 -15.207031 185.1875 -14.28125 190.5625 -14.28125 L 208.578125 -14.28125 L 203.609375 0 L 136.5625 0 C 147.320312 -15.726562 155.597656 -31.660156 161.390625 -47.796875 C 167.179688 -63.929688 170.179688 -81.722656 170.390625 -101.171875 C 170.597656 -120.628906 167.1875 -142.773438 160.15625 -167.609375 C 147.320312 -211.878906 131.90625 -246.738281 113.90625 -272.1875 C 95.90625 -297.644531 77.800781 -310.375 59.59375 -310.375 C 52.144531 -310.375 47.070312 -304.890625 44.375 -293.921875 C 41.6875 -282.953125 40.960938 -268.363281 42.203125 -250.15625 C 43.453125 -231.945312 46.351562 -211.566406 50.90625 -189.015625 C 55.457031 -166.460938 61.25 -143.492188 68.28125 -120.109375 C 75.3125 -96.734375 83.378906 -74.59375 92.484375 -53.6875 C 101.585938 -32.789062 111.109375 -14.894531 121.046875 0 L 6.828125 0 C 15.515625 -22.34375 21.617188 -45.101562 25.140625 -68.28125 C 28.660156 -91.457031 30.421875 -114.21875 30.421875 -136.5625 C 30.421875 -166.769531 28.453125 -195.632812 24.515625 -223.15625 C 20.585938 -250.675781 16.65625 -275.09375 12.71875 -296.40625 C 8.789062 -317.71875 6.828125 -333.753906 6.828125 -344.515625 C 6.828125 -359.003906 8.789062 -376.488281 12.71875 -396.96875 C 16.65625 -417.457031 26.898438 -440.320312 43.453125 -465.5625 Z M 43.453125 -465.5625 "/></g></g></g><g fill="#1f4e79" fill-opacity="1"><g transform="translate(892.493889, 901.514874)"><g><path d="M 212.296875 0 L 165.734375 0 L 166.359375 -11.171875 C 167.191406 -19.453125 164.296875 -20.691406 157.671875 -14.890625 C 151.460938 -9.097656 144.21875 -4.132812 135.9375 0 C 127.664062 4.132812 118.359375 6.203125 108.015625 6.203125 C 88.972656 6.203125 71.796875 -1.453125 56.484375 -16.765625 C 41.171875 -32.078125 29.066406 -53.390625 20.171875 -80.703125 C 11.273438 -108.015625 6.828125 -139.460938 6.828125 -175.046875 C 6.828125 -205.253906 9.722656 -230.703125 15.515625 -251.390625 C 21.304688 -272.085938 28.546875 -288.953125 37.234375 -301.984375 C 45.929688 -315.023438 55.035156 -325.0625 64.546875 -332.09375 C 74.066406 -339.132812 82.757812 -344 90.625 -346.6875 C 98.488281 -349.375 104.285156 -350.71875 108.015625 -350.71875 C 115.046875 -350.71875 122.492188 -347.507812 130.359375 -341.09375 C 138.222656 -334.6875 144.84375 -327.132812 150.21875 -318.4375 C 156.84375 -308.09375 161.1875 -302.921875 163.25 -302.921875 C 165.738281 -302.921875 167.191406 -309.128906 167.609375 -321.546875 L 168.84375 -344.515625 L 214.78125 -344.515625 C 205.675781 -322.171875 197.601562 -299.71875 190.5625 -277.15625 C 183.53125 -254.601562 180.222656 -231.328125 180.640625 -207.328125 C 181.054688 -189.535156 182.914062 -171.015625 186.21875 -151.765625 C 189.53125 -132.523438 193.148438 -113.59375 197.078125 -94.96875 C 201.015625 -76.351562 204.535156 -58.867188 207.640625 -42.515625 C 210.742188 -26.171875 212.296875 -12 212.296875 0 Z M 60.21875 -310.375 C 53.175781 -310.375 48.101562 -305.40625 45 -295.46875 C 41.894531 -285.539062 40.753906 -272.300781 41.578125 -255.75 C 42.410156 -239.195312 44.894531 -221.191406 49.03125 -201.734375 C 53.175781 -182.285156 58.554688 -162.734375 65.171875 -143.078125 C 71.796875 -123.421875 79.660156 -105.316406 88.765625 -88.765625 C 97.867188 -72.210938 107.90625 -58.96875 118.875 -49.03125 C 129.84375 -39.101562 141.328125 -34.140625 153.328125 -34.140625 C 160.359375 -34.140625 165.425781 -39.101562 168.53125 -49.03125 C 171.632812 -58.96875 172.769531 -72.210938 171.9375 -88.765625 C 171.113281 -105.316406 168.734375 -123.421875 164.796875 -143.078125 C 160.867188 -162.734375 155.488281 -182.285156 148.65625 -201.734375 C 141.832031 -221.191406 133.867188 -239.195312 124.765625 -255.75 C 115.660156 -272.300781 105.726562 -285.539062 94.96875 -295.46875 C 84.207031 -305.40625 72.625 -310.375 60.21875 -310.375 Z M 60.21875 -310.375 "/></g></g></g><g fill="#1f4e79" fill-opacity="1"><g transform="translate(1089.26949, 901.514874)"><g><path d="M 160.78125 -324.65625 C 155.8125 -311 151.050781 -295.789062 146.5 -279.03125 C 141.945312 -262.269531 138.222656 -246.023438 135.328125 -230.296875 C 130.359375 -241.054688 124.351562 -252.644531 117.3125 -265.0625 C 110.28125 -277.476562 101.796875 -288.132812 91.859375 -297.03125 C 81.929688 -305.925781 70.347656 -310.375 57.109375 -310.375 C 55.035156 -310.375 53.171875 -307.164062 51.515625 -300.75 C 49.867188 -294.332031 48.421875 -286.257812 47.171875 -276.53125 C 45.929688 -266.8125 45 -256.675781 44.375 -246.125 C 43.757812 -235.570312 43.453125 -226.160156 43.453125 -217.890625 C 43.453125 -181.460938 49.347656 -144.9375 61.140625 -108.3125 C 72.929688 -71.695312 88.347656 -35.59375 107.390625 0 L 6.828125 0 C 15.515625 -22.34375 21.617188 -45.101562 25.140625 -68.28125 C 28.660156 -91.457031 30.421875 -114.21875 30.421875 -136.5625 C 30.421875 -160.15625 28.453125 -183.535156 24.515625 -206.703125 C 20.585938 -229.878906 16.65625 -252.953125 12.71875 -275.921875 C 8.789062 -298.890625 6.828125 -321.753906 6.828125 -344.515625 L 62.078125 -344.515625 C 59.179688 -334.171875 58.867188 -328.476562 61.140625 -327.4375 C 63.421875 -326.40625 67.144531 -327.851562 72.3125 -331.78125 C 77.488281 -335.71875 83.078125 -339.859375 89.078125 -344.203125 C 95.078125 -348.546875 100.351562 -350.71875 104.90625 -350.71875 C 114.425781 -350.71875 124.046875 -348.648438 133.765625 -344.515625 C 143.492188 -340.378906 152.5 -333.757812 160.78125 -324.65625 Z M 160.78125 -324.65625 "/></g></g></g><g transform="matrix(1, 0, 0, 1, 521, 914)"><g clip-path="url(#8667b407df)"><g fill="#1f4e79" fill-opacity="1"><g transform="translate(4.112271, 107.402663)"><g><path d="M 14.484375 -74.5625 L 50.171875 -74.5625 C 52.015625 -74.5625 53.554688 -73.972656 54.796875 -72.796875 C 56.046875 -71.628906 56.671875 -70.125 56.671875 -68.28125 C 56.671875 -66.5 56.046875 -65.054688 54.796875 -63.953125 C 53.554688 -62.859375 52.015625 -62.3125 50.171875 -62.3125 L 20.34375 -62.3125 L 21.296875 -64.125 L 21.296875 -43.359375 L 20.453125 -44.203125 L 45.375 -44.203125 C 47.21875 -44.203125 48.757812 -43.613281 50 -42.4375 C 51.25 -41.269531 51.875 -39.765625 51.875 -37.921875 C 51.875 -36.140625 51.25 -34.695312 50 -33.59375 C 48.757812 -32.5 47.21875 -31.953125 45.375 -31.953125 L 20.765625 -31.953125 L 21.296875 -32.8125 L 21.296875 -11.296875 L 20.453125 -12.25 L 50.171875 -12.25 C 52.015625 -12.25 53.554688 -11.625 54.796875 -10.375 C 56.046875 -9.132812 56.671875 -7.703125 56.671875 -6.078125 C 56.671875 -4.296875 56.046875 -2.835938 54.796875 -1.703125 C 53.554688 -0.566406 52.015625 0 50.171875 0 L 14.484375 0 C 12.640625 0 11.09375 -0.617188 9.84375 -1.859375 C 8.601562 -3.109375 7.984375 -4.65625 7.984375 -6.5 L 7.984375 -68.0625 C 7.984375 -69.90625 8.601562 -71.445312 9.84375 -72.6875 C 11.09375 -73.9375 12.640625 -74.5625 14.484375 -74.5625 Z M 14.484375 -74.5625 "/></g></g></g><g fill="#1f4e79" fill-opacity="1"><g transform="translate(58.647732, 107.402663)"><g><path d="M 55.5 -74.875 C 57.125 -74.875 58.59375 -74.253906 59.90625 -73.015625 C 61.226562 -71.773438 61.890625 -70.195312 61.890625 -68.28125 C 61.890625 -67.632812 61.800781 -66.972656 61.625 -66.296875 C 61.445312 -65.628906 61.144531 -64.972656 60.71875 -64.328125 L 36.53125 -29.71875 L 38.453125 -37.0625 L 38.453125 -6.5 C 38.453125 -4.65625 37.828125 -3.109375 36.578125 -1.859375 C 35.335938 -0.617188 33.90625 0 32.28125 0 C 30.5 0 28.988281 -0.617188 27.75 -1.859375 C 26.507812 -3.109375 25.890625 -4.65625 25.890625 -6.5 L 25.890625 -36.21875 L 26.734375 -32.8125 L 3.734375 -63.375 C 3.015625 -64.300781 2.515625 -65.1875 2.234375 -66.03125 C 1.953125 -66.882812 1.8125 -67.671875 1.8125 -68.390625 C 1.8125 -70.304688 2.554688 -71.863281 4.046875 -73.0625 C 5.535156 -74.269531 7.0625 -74.875 8.625 -74.875 C 10.613281 -74.875 12.351562 -73.878906 13.84375 -71.890625 L 34.296875 -43.671875 L 31.3125 -44.09375 L 50.171875 -71.6875 C 51.660156 -73.8125 53.4375 -74.875 55.5 -74.875 Z M 55.5 -74.875 "/></g></g></g><g fill="#1f4e79" fill-opacity="1"><g transform="translate(115.739604, 107.402663)"><g><path d="M 14.484375 -74.5625 L 50.171875 -74.5625 C 52.015625 -74.5625 53.554688 -73.972656 54.796875 -72.796875 C 56.046875 -71.628906 56.671875 -70.125 56.671875 -68.28125 C 56.671875 -66.5 56.046875 -65.054688 54.796875 -63.953125 C 53.554688 -62.859375 52.015625 -62.3125 50.171875 -62.3125 L 20.34375 -62.3125 L 21.296875 -64.125 L 21.296875 -43.359375 L 20.453125 -44.203125 L 45.375 -44.203125 C 47.21875 -44.203125 48.757812 -43.613281 50 -42.4375 C 51.25 -41.269531 51.875 -39.765625 51.875 -37.921875 C 51.875 -36.140625 51.25 -34.695312 50 -33.59375 C 48.757812 -32.5 47.21875 -31.953125 45.375 -31.953125 L 20.765625 -31.953125 L 21.296875 -32.8125 L 21.296875 -11.296875 L 20.453125 -12.25 L 50.171875 -12.25 C 52.015625 -12.25 53.554688 -11.625 54.796875 -10.375 C 56.046875 -9.132812 56.671875 -7.703125 56.671875 -6.078125 C 56.671875 -4.296875 56.046875 -2.835938 54.796875 -1.703125 C 53.554688 -0.566406 52.015625 0 50.171875 0 L 14.484375 0 C 12.640625 0 11.09375 -0.617188 9.84375 -1.859375 C 8.601562 -3.109375 7.984375 -4.65625 7.984375 -6.5 L 7.984375 -68.0625 C 7.984375 -69.90625 8.601562 -71.445312 9.84375 -72.6875 C 11.09375 -73.9375 12.640625 -74.5625 14.484375 -74.5625 Z M 14.484375 -74.5625 "/></g></g></g><g fill="#1f4e79" fill-opacity="1"><g transform="translate(170.275064, 107.402663)"><g><path d="M 91.8125 -74.875 C 93.445312 -74.875 95.007812 -74.253906 96.5 -73.015625 C 97.988281 -71.773438 98.734375 -70.085938 98.734375 -67.953125 C 98.734375 -67.316406 98.628906 -66.609375 98.421875 -65.828125 L 77.4375 -4.046875 C 77.007812 -2.765625 76.242188 -1.785156 75.140625 -1.109375 C 74.046875 -0.441406 72.894531 -0.0703125 71.6875 0 C 70.476562 0 69.285156 -0.351562 68.109375 -1.0625 C 66.941406 -1.769531 66.039062 -2.800781 65.40625 -4.15625 L 49.640625 -39.9375 L 50.59375 -39.296875 L 35.046875 -4.15625 C 34.398438 -2.800781 33.488281 -1.769531 32.3125 -1.0625 C 31.144531 -0.351562 29.960938 0 28.765625 0 C 27.628906 -0.0703125 26.488281 -0.441406 25.34375 -1.109375 C 24.207031 -1.785156 23.425781 -2.765625 23 -4.046875 L 2.03125 -65.828125 C 1.8125 -66.609375 1.703125 -67.316406 1.703125 -67.953125 C 1.703125 -70.085938 2.460938 -71.773438 3.984375 -73.015625 C 5.515625 -74.253906 7.097656 -74.875 8.734375 -74.875 C 10.085938 -74.875 11.347656 -74.519531 12.515625 -73.8125 C 13.679688 -73.101562 14.476562 -72.070312 14.90625 -70.71875 L 31.84375 -19.390625 L 29.5 -19.5 L 44.625 -55.8125 C 45.195312 -57.09375 46.015625 -58.101562 47.078125 -58.84375 C 48.140625 -59.59375 49.347656 -59.929688 50.703125 -59.859375 C 52.046875 -59.929688 53.25 -59.59375 54.3125 -58.84375 C 55.382812 -58.101562 56.171875 -57.09375 56.671875 -55.8125 L 70.515625 -21.09375 L 68.8125 -20.03125 L 85.53125 -70.71875 C 85.957031 -72.070312 86.773438 -73.101562 87.984375 -73.8125 C 89.191406 -74.519531 90.46875 -74.875 91.8125 -74.875 Z M 91.8125 -74.875 "/></g></g></g><g fill="#1f4e79" fill-opacity="1"><g transform="translate(264.327427, 107.402663)"><g><path d="M 14.484375 -74.5625 L 50.171875 -74.5625 C 52.015625 -74.5625 53.554688 -73.972656 54.796875 -72.796875 C 56.046875 -71.628906 56.671875 -70.125 56.671875 -68.28125 C 56.671875 -66.5 56.046875 -65.054688 54.796875 -63.953125 C 53.554688 -62.859375 52.015625 -62.3125 50.171875 -62.3125 L 20.34375 -62.3125 L 21.296875 -64.125 L 21.296875 -43.359375 L 20.453125 -44.203125 L 45.375 -44.203125 C 47.21875 -44.203125 48.757812 -43.613281 50 -42.4375 C 51.25 -41.269531 51.875 -39.765625 51.875 -37.921875 C 51.875 -36.140625 51.25 -34.695312 50 -33.59375 C 48.757812 -32.5 47.21875 -31.953125 45.375 -31.953125 L 20.765625 -31.953125 L 21.296875 -32.8125 L 21.296875 -11.296875 L 20.453125 -12.25 L 50.171875 -12.25 C 52.015625 -12.25 53.554688 -11.625 54.796875 -10.375 C 56.046875 -9.132812 56.671875 -7.703125 56.671875 -6.078125 C 56.671875 -4.296875 56.046875 -2.835938 54.796875 -1.703125 C 53.554688 -0.566406 52.015625 0 50.171875 0 L 14.484375 0 C 12.640625 0 11.09375 -0.617188 9.84375 -1.859375 C 8.601562 -3.109375 7.984375 -4.65625 7.984375 -6.5 L 7.984375 -68.0625 C 7.984375 -69.90625 8.601562 -71.445312 9.84375 -72.6875 C 11.09375 -73.9375 12.640625 -74.5625 14.484375 -74.5625 Z M 14.484375 -74.5625 "/></g></g></g><g fill="#1f4e79" fill-opacity="1"><g transform="translate(318.862887, 107.402663)"><g><path d="M 35.359375 -57.84375 L 12.359375 -3.734375 C 11.859375 -2.378906 11.09375 -1.328125 10.0625 -0.578125 C 9.03125 0.160156 7.910156 0.53125 6.703125 0.53125 C 4.785156 0.53125 3.363281 0 2.4375 -1.0625 C 1.519531 -2.125 1.0625 -3.4375 1.0625 -5 C 1.0625 -5.644531 1.171875 -6.320312 1.390625 -7.03125 L 27.90625 -70.71875 C 28.476562 -72.144531 29.347656 -73.25 30.515625 -74.03125 C 31.691406 -74.8125 32.953125 -75.128906 34.296875 -74.984375 C 35.578125 -74.984375 36.765625 -74.609375 37.859375 -73.859375 C 38.960938 -73.117188 39.765625 -72.070312 40.265625 -70.71875 L 66.46875 -8.3125 C 66.820312 -7.382812 67 -6.53125 67 -5.75 C 67 -3.832031 66.375 -2.304688 65.125 -1.171875 C 63.882812 -0.0351562 62.519531 0.53125 61.03125 0.53125 C 59.75 0.53125 58.59375 0.140625 57.5625 -0.640625 C 56.539062 -1.421875 55.742188 -2.484375 55.171875 -3.828125 L 32.28125 -57.203125 Z M 15.65625 -16.71875 L 21.515625 -28.96875 L 50.28125 -28.96875 L 52.296875 -16.71875 Z M 15.65625 -16.71875 "/></g></g></g><g fill="#1f4e79" fill-opacity="1"><g transform="translate(380.534899, 107.402663)"><g><path d="M 15.65625 0 C 13.664062 0 11.890625 -0.617188 10.328125 -1.859375 C 8.765625 -3.109375 7.984375 -4.65625 7.984375 -6.5 L 7.984375 -68.0625 C 7.984375 -69.90625 8.601562 -71.445312 9.84375 -72.6875 C 11.09375 -73.9375 12.640625 -74.5625 14.484375 -74.5625 L 45.15625 -74.5625 C 48.851562 -74.5625 52.316406 -73.582031 55.546875 -71.625 C 58.773438 -69.675781 61.382812 -66.976562 63.375 -63.53125 C 65.363281 -60.09375 66.359375 -56.132812 66.359375 -51.65625 C 66.359375 -48.957031 65.804688 -46.328125 64.703125 -43.765625 C 63.609375 -41.210938 62.117188 -38.90625 60.234375 -36.84375 C 58.347656 -34.789062 56.234375 -33.195312 53.890625 -32.0625 L 54 -34.515625 C 55.988281 -33.441406 57.640625 -32.175781 58.953125 -30.71875 C 60.265625 -29.269531 61.289062 -27.710938 62.03125 -26.046875 C 62.78125 -24.378906 63.226562 -22.582031 63.375 -20.65625 C 63.65625 -18.882812 63.847656 -17.320312 63.953125 -15.96875 C 64.066406 -14.625 64.28125 -13.488281 64.59375 -12.5625 C 64.914062 -11.644531 65.539062 -10.9375 66.46875 -10.4375 C 68.03125 -9.507812 69.003906 -8.175781 69.390625 -6.4375 C 69.785156 -4.695312 69.378906 -3.15625 68.171875 -1.8125 C 67.390625 -0.882812 66.394531 -0.296875 65.1875 -0.046875 C 63.976562 0.191406 62.769531 0.191406 61.5625 -0.046875 C 60.351562 -0.296875 59.359375 -0.632812 58.578125 -1.0625 C 57.367188 -1.769531 56.160156 -2.816406 54.953125 -4.203125 C 53.753906 -5.585938 52.78125 -7.453125 52.03125 -9.796875 C 51.289062 -12.140625 50.921875 -15.160156 50.921875 -18.859375 C 50.921875 -20.054688 50.707031 -21.171875 50.28125 -22.203125 C 49.851562 -23.234375 49.25 -24.117188 48.46875 -24.859375 C 47.6875 -25.609375 46.691406 -26.175781 45.484375 -26.5625 C 44.273438 -26.957031 42.851562 -27.15625 41.21875 -27.15625 L 19.703125 -27.15625 L 21.296875 -29.609375 L 21.296875 -6.5 C 21.296875 -4.65625 20.800781 -3.109375 19.8125 -1.859375 C 18.820312 -0.617188 17.4375 0 15.65625 0 Z M 19.8125 -38.125 L 44.625 -38.125 C 45.90625 -38.125 47.148438 -38.707031 48.359375 -39.875 C 49.566406 -41.050781 50.5625 -42.648438 51.34375 -44.671875 C 52.125 -46.703125 52.515625 -48.925781 52.515625 -51.34375 C 52.515625 -54.46875 51.675781 -57.078125 50 -59.171875 C 48.332031 -61.265625 46.539062 -62.3125 44.625 -62.3125 L 20.03125 -62.3125 L 21.296875 -65.71875 L 21.296875 -35.578125 Z M 19.8125 -38.125 "/></g></g></g></g></g></svg>